PathFileType	4	(X/Y/Z)	Patient4_TMGait_0pt3_01_left_07.trc.trc
DataRate	CameraRate	NumFrames	NumMarkers	Units	OrigDataRate	OrigDataStartFrame	OrigNumFrames
49.822064056939	49.822064056939	6	33	mm	49.822064056939	89	       141
Frame#	Time	Sacral			L.Shoulder			Chest			R.Shoulder			Neck			R.ASIS			L.ASIS			R.Thigh.Superior			R.Thigh.Lateral			R.Thigh.Inferior			R.Patella			L.Thigh.Superior			L.Thigh.Lateral			L.Thigh.Inferior			L.Patella			L.Shank.Superior			L.Shank.Lateral			L.Shank.Inferior			R.Shank.Superior			R.Shank.Lateral			R.Shank.Inferior			R.Heel			R.Midfoot.Superior			R.Midfoot.Lateral			R.Toe			L.Heel			L.Midfoot.Lateral			L.Midfoot.Superior			L.Toe			L.Elbow			L.Wrist			R.Elbow			R.Wrist			
		X1	Y1	Z1	X2	Y2	Z2	X3	Y3	Z3	X4	Y4	Z4	X5	Y5	Z5	X6	Y6	Z6	X7	Y7	Z7	X8	Y8	Z8	X9	Y9	Z9	X10	Y10	Z10	X11	Y11	Z11	X12	Y12	Z12	X13	Y13	Z13	X14	Y14	Z14	X15	Y15	Z15	X16	Y16	Z16	X17	Y17	Z17	X18	Y18	Z18	X19	Y19	Z19	X20	Y20	Z20	X21	Y21	Z21	X22	Y22	Z22	X23	Y23	Z23	X24	Y24	Z24	X25	Y25	Z25	X26	Y26	Z26	X27	Y27	Z27	X28	Y28	Z28	X29	Y29	Z29	X30	Y30	Z30	X31	Y31	Z31	X32	Y32	Z32	X33	Y33	Z33	

89	14.256285714286	792.637467968298	999.598667843215	524.103559147173	996.545542024090	1437.120999552561	384.140831309762	1067.491293612953	1364.458422607453	558.571038736960	951.887993910935	1431.669706109274	715.862966088580	949.695015213092	1492.293108778542	542.606989633412	1006.606424762831	941.387855348392	674.523262124104	1028.223220731580	958.727986895337	400.576334297979	1066.748992015304	749.819652321443	644.123557113788	991.406170568862	633.264511006274	697.247489632828	1078.599980999989	588.937287136579	621.943085219149	1086.410653633089	501.515114606079	628.434158668521	1037.949554587492	727.562114770185	422.556001543098	934.793551843375	625.831285797479	349.271045391679	1001.005263971874	532.874934670423	412.857740045477	986.875751824876	455.950336837795	413.387584711006	931.254758017436	397.643345869426	401.401248319099	806.463093795157	326.998094184557	344.115026634944	813.305838708530	199.289175196971	403.042574182354	1064.005130178723	410.748251489162	634.744118165569	996.306385190233	302.225350645806	692.164254968652	1049.221180708781	210.514952074058	632.922598508302	926.137192619079	42.731553495254	596.689526395508	1095.804053567684	98.388227059375	639.498607019578	1006.728007159125	36.299060313682	674.236920545113	1214.728746264256	49.178624114635	670.214136781650	641.430271406787	83.371679109881	431.202826722200	714.374982663460	62.386387527267	353.909795687746	808.438401032553	104.557291784726	381.665984108300	920.448716555677	35.859806363044	356.197891774909	1110.250490974201	1128.508895411249	229.253510916029	1367.322563848552	1110.280260520803	263.352928951034	849.052809914212	1093.769989129513	810.914786978591	926.561857107668	847.893913766502	855.799553247876	
90	14.276357142857	792.708646546557	999.972540746673	530.253039705410	994.463280637981	1437.933821082191	388.099500521245	1067.190370938529	1365.538489895361	561.910029569001	952.807052408501	1432.461892545116	720.155518668870	948.818188572569	1493.025682259031	546.841589655378	1007.864472876917	941.992096794327	678.848384913740	1027.361500460780	959.690501208070	404.917119421948	1066.333209229689	749.221385809330	648.219032279105	989.829664444232	633.103008644281	700.741461814755	1076.459713223524	588.287447389304	625.156911907328	1083.478120955142	500.833909170093	630.986379972740	1041.820309450658	729.530292892235	426.691289168733	941.877446044660	625.797814120724	353.159845152265	1011.028785379356	533.750583687676	416.179345871680	997.791672849036	455.301091982152	415.404549261595	939.509518023092	397.693051055021	403.570374169963	812.030911882050	331.971973474042	346.500906064558	815.103388676558	203.469898107999	403.632539272001	1060.515659024329	410.222408270776	636.768009238296	992.307490827502	301.803253565514	693.615952068991	1044.354607020509	210.107217457972	633.701505469365	920.342327455820	42.710402202303	596.825807724200	1089.967608888248	98.241371354652	639.610624994214	1000.916331923522	36.293980917606	674.350224059772	1208.968512430556	48.910463057307	670.364919928955	639.327678884431	95.024013469120	431.357876615671	711.068882570599	70.336212243542	354.128867978604	806.946940642061	107.649174574206	381.685011537480	914.578174732792	35.042462584800	356.659649613048	1102.423882290602	1125.518416279108	234.868616210051	1359.341438803116	1098.261950274077	266.866429211674	853.242888182184	1094.672282122311	819.103317369270	935.693195242260	850.728074753708	865.058980611203	
91	14.296428571429	792.551767383716	1000.213356598812	536.240877223117	992.087492864962	1438.510987520895	391.761623745761	1066.646242503657	1366.502553476242	564.966903469565	953.541543117624	1433.223956923710	724.169068556736	947.745985916962	1493.634138962240	550.778500238068	1008.910849214606	942.453143363875	683.021210732617	1026.264648009373	960.530400395871	409.106489694416	1065.721838036327	748.576789439399	652.047417188672	988.158900249859	632.859426293679	704.085464105206	1074.202363710075	587.594138139659	628.202807948536	1080.401914432783	500.108198061774	633.425415610905	1045.868254641392	731.671476862305	430.885588457380	949.630128283823	625.839978793859	356.936636825227	1021.643361393881	534.943744600641	419.696633384678	1009.347781773403	455.000337767509	417.597133457293	948.544313372994	397.985231726737	405.817957604394	818.517538924030	337.371647957345	348.965538179896	817.624263107677	208.232236977050	404.428113082530	1056.922373964836	409.644565912991	638.703429353013	988.232577469494	301.349832144813	695.068493453706	1039.413118709346	209.676100291538	634.444831155767	914.494982780999	42.698252488790	596.927697972686	1084.073401173601	98.116128172575	639.732592411824	995.042928378730	36.283301304187	674.438624763064	1203.144536420056	48.629504675884	670.544974410963	637.989421491379	107.823142721094	431.768219998715	708.314490089300	79.423645416541	354.521512621795	805.976956262276	111.425715647842	381.910877012683	908.786345537171	34.234705915098	357.129228995259	1093.503914035539	1121.990046898768	240.455151647086	1349.745879801463	1084.354101628808	269.887680432812	857.671463550577	1095.517948203531	827.237988168237	945.489176559101	853.739764978806	873.894117851688	
92	14.316500000000	792.173081347291	1000.318864492067	542.060033601089	989.423420371745	1438.862267847328	395.138927833326	1065.856992841927	1367.339274716750	567.742248620413	954.097316577169	1433.932424106306	727.910958308360	946.481052154444	1494.112513042913	554.433820797302	1009.761954244957	942.780137873839	687.003067296714	1024.936622246470	961.241277968295	413.096235536866	1064.979281838489	747.922220953050	655.580044709898	986.503214381185	632.557262386060	707.267031024857	1071.955055192275	586.888705810803	631.075749062186	1077.334396823243	499.343299864855	635.758700427349	1049.968662959370	733.981274428472	435.086466964333	957.805445956092	626.025761036489	360.584830671599	1032.551038666185	536.494811067803	423.365930915858	1021.249669287307	455.109703321577	419.955870881113	958.110499996429	398.568046335095	408.131079229600	825.697973778904	343.122589982355	351.536829425380	820.797785919108	213.486818486800	405.467655299308	1053.335561627368	409.019983169977	640.551231524593	984.156964287081	300.886374161211	696.536976827041	1034.444345163622	209.222513326977	635.156123946270	908.587115468253	42.697226304607	597.001530185969	1078.135119732984	98.006168210047	639.861862874424	989.104296504706	36.269360913955	674.505867941038	1197.259853130387	48.324831626795	670.734868351693	637.487377528388	121.372950608813	432.552252512822	706.200651689066	89.435272509854	355.156695144168	805.554095050542	115.867832348172	382.367381367707	903.259234253824	33.526752186390	357.498426825681	1083.580246955856	1118.043725814995	245.989050374287	1338.354898386113	1068.511570823333	272.463184919985	862.368766974183	1096.248291449288	835.199700170292	955.993306022659	856.901117575509	882.212715362105	
93	14.336571428571	791.583297683869	1000.299401020160	547.702366417865	986.481724721803	1439.016606693450	398.249553837336	1064.831660670148	1368.049688901588	570.238993211272	954.494197701338	1434.571414310668	731.392982638771	945.033180678397	1494.467944996209	557.829926248760	1010.430953619741	942.993723666558	690.756204288363	1023.387406650123	961.831260524096	416.842222225532	1064.150209455467	747.284229300994	658.824413184732	984.920527973134	632.217871143292	710.281673857677	1069.802097418437	586.194943475680	633.790794879952	1074.386710261461	498.545758440796	638.007361852923	1053.990770982384	736.456178269667	439.227786064757	966.126365200207	626.415100500882	364.079078867180	1043.448950009092	538.426002877551	427.098269479712	1033.200362969800	455.670547445900	422.425999333850	967.948516807403	399.472420652373	410.468624755314	833.325274299526	349.100846547376	354.231395961764	824.565059824555	219.079112081678	406.761073706473	1049.828431057501	408.358929048385	642.323583371611	980.121911477242	300.431739051518	698.025077114435	1029.481876617185	208.754279035609	635.847893302674	902.621520282470	42.708055765092	597.057396903165	1072.169390263241	97.907844603585	640.000095536996	983.108246115900	36.254529103238	674.558430673591	1191.324307638598	47.997429622142	670.920686421461	637.907650722274	135.124563747040	433.823299772630	704.843820615848	100.020692119068	356.092267429390	805.743375282667	120.878249219347	383.046405661868	898.274761221539	33.034925360363	357.627092596392	1072.783582025761	1113.833059897538	251.446645308302	1324.985160993430	1050.793090190690	274.668165592869	867.361130473340	1096.815836530901	842.858377629922	967.214273677916	860.186720649025	889.920357909007	
94	14.356642857143	790.795049522718	1000.172935706763	553.153963873081	983.281742059212	1439.012777806866	401.114338528072	1063.589005640800	1368.642292096558	572.462586762473	954.760421533175	1435.131395130949	734.628377518853	943.418758696407	1494.715430613606	560.990305716075	1010.925761014558	943.120659891264	694.248453839942	1021.631441010283	962.317530813096	420.309891453052	1063.261509217616	746.680146832839	661.809018698953	983.426716011067	631.858268037175	713.126819591929	1067.786266006335	585.528222814428	636.368808670712	1071.627110435519	497.721671524386	640.193252356671	1057.801667350583	739.085208199093	443.233034673910	974.300027747953	627.049740058085	367.382953772896	1054.042167487266	540.733806067327	430.765912322879	1044.911923385385	456.699621815277	424.910873385376	977.804525417653	400.706073256179	412.761094473950	841.152894903581	355.127100897055	357.045542232958	828.893733895093	224.786135930574	408.281144603780	1046.439267888695	407.673255833662	644.034045006243	976.140580927569	300.000564812491	699.521764959605	1024.546159840084	208.282740078225	636.533745511265	896.607393757427	42.730414032048	597.106125439633	1066.192088005202	97.818601111973	640.149638249307	977.068842177281	36.241415174885	674.603769162003	1185.350630949847	47.655889843109	671.093840523635	639.357930967915	148.393832751526	435.665041090492	704.396727897506	110.696105466284	357.358748491520	806.661784308089	126.270136868171	383.901865668829	894.207279745232	32.886326940448	357.355442234397	1061.269302252810	1109.522204357746	256.806062093015	1309.456821852662	1031.375184128397	276.597660020982	872.675332667650	1097.182920432795	850.084066347865	979.137154347329	863.572639490467	896.922457627112	
